<svg  version="1.1" id="Layer_1" xmlns="http://www.w3.org/2000/svg" xmlns:xlink="http://www.w3.org/1999/xlink" width="425.197" height="300"
	 viewBox="0 0 425.197 300" overflow="visible" enable-background="new 0 0 425.197 300" xml:space="preserve">
<path fill-rule="evenodd" clip-rule="evenodd" fill="#FFFFFF" d="M416.308,211.841c-3.762-5.182-9.189-8.145-12.323-14.114
	c-7.283-13.887-8.267-32.626-11.163-47.827h-4.962c3.558,21.168,2.766,48.272,21.46,62.684c-13.62-2.696-23.694-14.35-20.696-28.269
	c1.248-5.791,1.766-36.708-6.388-34.415c2.022,7.875,3.919,15.841,4.549,23.974c0.469,6.038-2.285,10.755-2.151,16.716
	c0.217,9.711,7.6,18.039,16.334,21.581c3.613,1.466,7.59,2.239,11.336,3.253c1.943,0.527,3.643,1.643,5.308,0.42
	C420.414,213.787,417.643,213.68,416.308,211.841z M375.495,89.36c-3.938-6.818-5.205-10.068-13.231-10.068
	c8.516,9.766,13.404,21.291,17.275,33.52c2.016,6.367,3.546,12.896,4.928,19.425c0.783,3.694,1.494,7.402,2.201,11.11
	c1.088,5.711,0.139,6.553,6.153,6.553c-2.771-15.018-6.374-29.889-10.421-44.609C380.672,99.707,378.419,94.425,375.495,89.36z
	 M385.378,149.899c-6.805-21.768-18.422-41.281-29.801-60.894c-0.14-4.36,1.725-9.964,0.793-14.068
	c-0.129-0.568-0.296-1.111-0.481-1.639c1.062,0.865,2.098,1.761,3.149,2.65c3.811,3.226,4.307,3.343,9.717,3.343
	c-21.977-26.133-57.616-24.129-88.692-23.773c-40.706,0.466-81.562,4.637-121.077,14.446c-0.413-4.044-0.827-8.088-1.24-12.133
	c5.936,1.077,16.394-4.275,21.791-7.138c5.271-2.796,9.738-6.708,14.249-10.583c7.615-6.542,15.049-13.575,17.344-23.667
	c0.912-4.019,2.056-6.363-2.482-6.954c-4.09-0.533-8.273-0.906-12.404-0.846c-7.709,0.112-15.879,1.375-23.114,4.085
	c-12.695,4.754-22.423,14.161-28.574,26.122c-4.014-3.385-3.972-4.314-5.479-8.995c-0.741-2.307-1.635-4.689-3.33-6.479
	c-4.639-4.904-10.386-0.96-14.551-3.976c-5.481-3.969-12.193-7.046-18.859-8.321c-9.603-1.838-15.375,2.825-23.817,6.438
	c-3.682,1.576-10.073,2.624-10.685,7.467c-0.247,1.944-0.756,12.218-2.195,11.248c-3.061-2.069-6.347-3.814-9.78-5.18
	c-4.863-1.933-49.282-10.02-47.8-0.806c0.801,4.994-2.46,9.55,1.281,14.588c2.636,3.551,7.258,5.963,10.983,8.094
	c10.11,5.785,21.033,11.295,32.972,10.23c-0.073,3.383-1.442,14.51,1.96,16.045c-0.505,0.033-1.015,0.09-1.465,0.09
	c1.148,13.396,3.408,26.604,7.713,39.367c1.979,5.869,4.371,11.518,7.049,17.098c2.007,4.185,1.509,12.568,6.166,14.086
	c-0.538,0.029-1.071,0.057-1.576,0.057c3.389,7.904,6.161,15.118,14.929,17.413c4.218,1.104,4.895,1.508,8.558,4.087
	c2.507,1.763,5.241,3.043,8.167,3.94c2.739,0.838,12.661-0.018,13.89,1.255c10.868,11.224,22.651,21.617,35.39,30.676
	c6.586,4.684,13.541,8.767,20.683,12.537c0.531,0.28,1.118,0.5,1.731,0.688c-0.141,0.003-0.292,0.01-0.427,0.01
	c1.792,0.853,3.584,1.707,5.375,2.56c-2.868,5.648-1.619,14.113-3.805,20.509c-1.388,4.06-3.464,7.775-5.994,11.246
	c-1.863,2.554-3.66,5.054-5.42,7.575c-2.809,1.694-6.94,7.538-8.399,12.208c-1.995,2.806-4.014,5.942-4.086,8.051
	c-0.192,5.642,5.105,4.625,9.931,5.105c5.069,0.504,10.119,0.94,15.21,1.125c10.066,0.365,19.946,0.446,29.994,1.231
	c7.483,0.584,32.574,4.897,31.203-7.646c-0.388-3.558-1.587-6.448-2.951-9.273c-0.649-2.085-1.571-3.972-2.72-5.665
	c-0.287-0.663-0.564-1.342-0.82-2.045c-1.368-3.758-0.295-3.1,0.702-7.057c0.4-1.584,0.668-3.124,0.91-4.744
	c0.711-4.76,8.272-37.306,16.747-27.359c3.09,3.626,8.553,28.651,17.656,14.753c5.108-7.798,6.249,0.271,8.332,4.436
	c2.378,4.753,11.009,5.621,9.861-1.65c2.774,3.105,5.961,7.105,10.627,5.035c0.005,4.545-7.786,8.835-10.006,12.936
	c-1.442,2.666-4.708,9.077-3.391,12.236c2.093,5.022,11.759,3.164,16.135,3.38c3.097,0.152,6.193,0.305,9.289,0.457
	c1.687,0.084,0.481,1.541,1.289,2.642c1.643,2.24,2.063,4.686,4.279,6.726c3.831,3.527,10.416,3.466,15.237,3.548
	c7.033,0.12,14.452-0.671,21.297-2.313c7.074-1.699,7.988-2.023,7.605-9.86c-0.107-2.221-0.819-5.789-1.385-8.212
	c-0.612-2.629-1.523-5.266-3.058-7.51c-2.6-3.801-2.792-6.667-3.041-11.39c-0.227-4.27-0.268-8.562-0.165-12.834
	c0.07-2.882,1.957-10.978,0.413-13.205c-0.749-1.082,1.788-3.884,2.481-4.994c-0.805,0-1.519-0.046-2.166-0.084
	c1.871-0.229,2.611-1.055,4.234-3.959c1.346-2.412,2.42-5.083,3.39-7.675c1.465-3.919,2.534-8.005,3.474-12.093
	c3.53-15.352,5.971-31.035,6.45-46.795c-0.571-0.105-1.057-0.15-1.506-0.17c3.306-1.732,1.365-9.393,0.987-13.449
	c-0.6-6.507-1.805-12.926-2.954-19.352c3.517,5.67,6.563,11.59,9.251,17.692C378.225,138.396,380.653,151.294,385.378,149.899z"/>
<g>
	<path fill-rule="evenodd" clip-rule="evenodd" fill="#8B5C29" d="M344.896,64.023c-10.586-2.683-21.34-4.852-32.218-5.944
		c-3.754-0.376-8.085-1.405-11.822-0.577c-0.688,0.152-1.457,0.476-2.045,0.867c-1.758,1.169-1.783-0.296-3.205,0.207
		c-13.035,4.608-5.815,31.45-1.985,41.102c7.386,18.604,19.141,29.937,36.638,39.081c7.814,4.083,26.408,14.05,34.899,5.86
		c4.78-4.613,2.025-15.822,0.454-21.222c-2.982-10.246-5.159-21.467-9.427-31.251c-1.937-4.438,1.361-12.023,0.185-17.208
		C355.046,69.096,350.637,65.377,344.896,64.023"/>
	<path fill-rule="evenodd" clip-rule="evenodd" fill="#8B5C29" d="M252.396,135.868c5.285-14.197,4.46-29.328-5.913-41.184
		c-9.701-11.087-30.975-18.371-44.574-11.865c-27.973,13.386-30.544,59.187,0.206,71.455
		C222.204,162.288,243.232,155.188,252.396,135.868"/>
	<path fill-rule="evenodd" clip-rule="evenodd" fill="#FFCFCE" d="M261.079,202.803c-4.63,2.914-8.579,10.507-9.138,15.723
		c-0.493,4.613,3.3,6.144,2.666,10.439c-1.112,7.562,9.921,13.669,15.446,8.295c0.914-0.89,1.505-4.106,2.356-4.581
		c1.56-0.872,12.371,0.877,13.812,1.941c3.241,2.397,1.829,6.979,5.562,9.222c3.966,2.384,5.573,0.869,8.248-1.464
		c2.364-2.063,11.479-9.555,11.826-12.465c0.194-1.631-3.925-7.062-4.466-9.034c-0.797-2.906-1.243-5.965-0.042-8.832
		c1.721-4.101-7.705-13.75-10.337-16.302c-3.638-3.526-7.746-4.422-12.798-3.197c-3.31,0.801-6,2.785-9.034,4.023
		C270.306,198.56,265.403,199.612,261.079,202.803"/>
	<path fill-rule="evenodd" clip-rule="evenodd" fill="#8B5C29" d="M340.101,185.347c-7.081,0.137-14.23,2.595-19.621,7.242
		c-5.235,4.514-12.03,7.58-13.645,15.063c-0.881,4.076-0.372,11.217,1.301,15.392c0.963,2.403,2.852,4.76,3.639,7.034
		c0.407,1.176,0.069,3.245,1.117,5.407c1.52,3.14,7.578,8.193,8.021,11.226c0.269,1.832-2.565,3.249-1.405,6.024
		c2.402,5.749,14.526,1.8,19.724,3.467c7.402,2.373,14.341,7.032,12.241-4.209c-1.354-7.25-4.838-20.134-2.275-27.32
		c1.679-4.706,6.977-8.806,8.975-13.782C363.549,197.485,353.52,186.269,340.101,185.347"/>
	<path fill-rule="evenodd" clip-rule="evenodd" fill="#FFFF99" d="M135.334,31.834c0.991-3.922-3.088-11.286-8.021-8.665
		C120.994,26.526,132.991,36.883,135.334,31.834"/>
	<path fill-rule="evenodd" clip-rule="evenodd" fill="#8B5C29" d="M114.495,65.757c1.3-15.955-5.429-32.01-18.462-41.452
		c-5.472-3.964-11.301-9.512-15.85-2.893c-2.772,4.034-4.691,9.19-7.865,12.899c-1.586,1.854-3.511,2.246-5.003,4.952
		c-1.881,3.412-2.953,7.46-4.632,11.017c-2.543,5.388-6.19,10.403-7.112,16.425c-1.189,7.767,0.763,17.597,2.06,25.344
		c1.03,6.146-0.091,12.935,5.01,17.45c10.297,9.112,25.246,2.709,33.576-5.488c4.451-4.379,7.485-10.846,10.958-15.063
		C112.472,82.517,113.412,74.2,114.495,65.757 M74.591,44.876c0.083,0.4,0.964,0.908,0.869,1.815
		c-0.413-0.056-0.828-0.109-1.24-0.165C74.283,46.035,74.655,45.343,74.591,44.876"/>
	<path fill-rule="evenodd" clip-rule="evenodd" fill="#333333" d="M74.798,44.876c0,0.014-0.57,1.197-0.578,1.65
		c0.413,0.056,0.827,0.109,1.24,0.165C75.547,45.859,74.845,45.501,74.798,44.876"/>
	<path fill-rule="evenodd" clip-rule="evenodd" fill="#FFCFCE" d="M19.141,34.517C7.066,36.25,31.886,52.612,34.979,54.078
		c5.216,2.473,19.166,7.157,24.397,2.187c6.351-6.034-9.626-15.332-14.142-17.042c-5.449-2.065-10.451-0.904-15.92-1.775
		C26.033,36.924,23.071,34.135,19.141,34.517"/>
	<path fill-rule="evenodd" clip-rule="evenodd" fill="#FFFF99" d="M76.04,20.693c-4.19,0.121-11.178,9.245-5.087,10.936
		C74.321,32.564,82.919,22.064,76.04,20.693"/>
	<path fill-rule="evenodd" clip-rule="evenodd" fill="#333333" d="M61.235,50.323c-0.365,1.358-0.733,2.498-0.578,4.002
		c1.381-2.682,2.603-5.426,3.927-8.13C63.24,47.365,62.101,48.767,61.235,50.323"/>
	<path fill-rule="evenodd" clip-rule="evenodd" fill="#333333" d="M58.755,56.513c-0.185,0.725-0.351,1.438-0.413,2.187
		C59.609,56.916,58.747,56.481,58.755,56.513"/>
	<path fill-rule="evenodd" clip-rule="evenodd" fill="#333333" d="M65.453,112.429c0.813,0,1.627,0,2.44,0
		c-2.233-0.87-4.391-2.036-6.12-3.713C62.184,110.79,63.441,112.131,65.453,112.429"/>
	<path fill-rule="evenodd" clip-rule="evenodd" fill="#FFCFCE" d="M154.108,46.897c-3.438,4.144,1.139,7.122,5.043,5.653
		c3.494-1.316,6.265-3.985,10.008-5.487c9.965-3.999,22.841-10.602,28.325-20.346c1.496-2.66,3.266-6.725-0.022-8.85
		c-4.482-2.902-8.257-0.033-12.447,1.567C171.796,24.484,158.23,32.387,154.108,46.897"/>
	<path fill-rule="evenodd" clip-rule="evenodd" fill="#FFCCCC" d="M103.785,120.063c-9.007,2.48-14.407,2.813-20.406,11.43
		c-6.177,8.873-9.562,21.179,0.392,28.146c2.469,1.728,5.642,2.469,8.021,4.166c1.955,1.394,2.51,3.029,4.384,4.746
		c3.279,3.007,6.524,3.702,10.917,4.252c4.996,0.625,9.802,0.414,14.804,0.081c3.376-0.226,6.035,1.596,9.676,0.454
		c-5.385-0.361-25.495-8.54-16.127-14.608c9.571-6.198,23.176,0.688,20.344,12.216c7.996-7.277,17.447-11.397,14.534-25.358
		C146.298,126.29,121.169,117.589,103.785,120.063"/>
	<path fill-rule="evenodd" clip-rule="evenodd" fill="#FF6666" d="M113.172,162.773c2.449,6.476,20.625,16.57,22.949,6.396
		C139.956,152.379,110.916,157.024,113.172,162.773"/>
	<path fill-rule="evenodd" clip-rule="evenodd" fill="#8B5C29" d="M152.619,201.565c5.581,4.02,12.945,5.887,18.11,10.192
		c2.156,1.797,3.786,6.126,7.196,6.064c9.972-0.18,2.479-20.496-1.116-24.594c-7.592-8.652-17.569-6.634-27.348-3.762
		C140.345,192.143,145.464,199.95,152.619,201.565"/>
	<path fill-rule="evenodd" clip-rule="evenodd" fill="#666666" d="M205.877,255.789c-2.495,0.338-4.574,1.683-6.203,3.549
		c-1.151,1.318-1.784,3.146-2.497,4.704c-0.646,1.411-4.804-0.604-6.341-1.032c-6.326-1.771-18.548-4.271-24.613-0.617
		c-3.557,2.143-9.258,10.956-8.931,15.596c0.366,5.186,4.871,5.29,8.765,7.059c2.826,1.282,7.06,0.262,10.05,0.115
		c3.337-0.161,7.018,1.454,10.501,1.495c7.962,0.092,14.561-0.876,22.495,0.04c9.882,1.14,30.226,6.639,29.027-8.252
		C236.808,262.004,220.896,255.147,205.877,255.789"/>
	<path fill-rule="evenodd" clip-rule="evenodd" fill="#666666" d="M356.64,283.975c4.544-11.822-3.981-22.135-15.011-25.008
		c-3.736-0.974-7.658-1.345-11.494-0.765c-3.38,0.512-9.407,4.902-12.157,4.684c-3.265-0.26-8.928-5.543-13.046-6.396
		c-5.325-1.101-8.394-0.726-11.887,3.713c-1.642,2.082-2.836,4.741-3.559,7.265c-1.279,4.476-1.15,4.8,2.937,6.23
		c4.135,1.444,9.449,1.364,13.788,1.796c1.469,0.146,5.529-0.399,6.515,0.473c0.362,0.32,0.293,3.862,0.931,4.829
		c3.763,5.729,5.965,6.676,13.119,7.313C336.879,289.009,347.076,287.121,356.64,283.975"/>
	<path fill-rule="evenodd" clip-rule="evenodd" d="M385.378,149.899c-6.84-21.881-18.543-41.484-29.979-61.199
		c-4.803,2.376,3.914,20.113,5.627,24.431c2.682,6.766,4.237,14.06,4.916,21.292c0.647,6.881,1.078,9.139-5.872,10.773
		c-5.393,1.268-10.712,0.652-16.001-0.828c-28.375-7.934-52.56-35.226-54.086-65.077c-0.523-4.461-0.364-9.466,0.619-13.865
		c1.562-6.981,5.483-5.462,12.021-5.414c11.096,0.082,22.026,1.676,32.887,3.844c6.317,1.491,11.606,3.366,17.032,6.948
		c2.323,1.534,4.379,3.352,6.496,5.143c3.811,3.227,4.307,3.343,9.717,3.343c-21.977-26.133-57.616-24.129-88.692-23.772
		c-40.706,0.466-81.562,4.637-121.077,14.446c-0.413-4.044-0.827-8.088-1.24-12.133c5.936,1.077,16.394-4.275,21.791-7.138
		c5.271-2.796,9.738-6.708,14.249-10.583c7.615-6.542,15.049-13.575,17.344-23.667c0.912-4.019,2.056-6.363-2.482-6.954
		c-4.09-0.533-8.274-0.906-12.404-0.846c-7.709,0.112-15.879,1.375-23.114,4.085c-12.695,4.754-22.423,14.161-28.574,26.122
		c-4.014-3.385-3.972-4.314-5.479-8.995c-0.741-2.307-1.635-4.689-3.33-6.479c-4.639-4.904-10.386-0.96-14.551-3.976
		c-5.481-3.969-12.193-7.046-18.859-8.321c-9.603-1.838-15.375,2.825-23.817,6.438c-3.682,1.576-10.073,2.624-10.685,7.467
		c-0.247,1.944-0.756,12.218-2.195,11.248c-3.061-2.069-6.347-3.814-9.78-5.18c-4.863-1.933-49.282-10.02-47.8-0.806
		c0.801,4.994-2.46,9.55,1.281,14.588c2.636,3.551,7.258,5.963,10.983,8.094c10.11,5.785,21.033,11.295,32.972,10.23
		c-0.073,3.383-1.442,14.51,1.96,16.044c-0.505,0.033-1.015,0.09-1.465,0.09c1.148,13.396,3.408,26.604,7.713,39.368
		c1.979,5.869,4.371,11.518,7.049,17.098c2.007,4.185,1.509,12.568,6.166,14.086c-0.538,0.029-1.071,0.057-1.576,0.057
		c3.389,7.904,6.161,15.118,14.929,17.413c4.218,1.104,4.895,1.508,8.558,4.087c2.507,1.763,5.241,3.043,8.167,3.94
		c2.739,0.838,12.661-0.018,13.89,1.255c10.868,11.224,22.651,21.617,35.39,30.676c6.586,4.684,13.541,8.767,20.683,12.537
		c0.531,0.28,1.118,0.5,1.731,0.688c-0.141,0.003-0.292,0.01-0.427,0.01c1.792,0.853,3.584,1.707,5.375,2.56
		c-2.868,5.648-1.619,14.113-3.805,20.509c-1.388,4.06-3.464,7.775-5.994,11.246c-3.737,5.123-7.211,10.029-10.648,15.33
		c-1.98,3.053-7.142,9.11-7.257,12.504c-0.192,5.642,5.105,4.625,9.931,5.105c5.069,0.504,10.119,0.94,15.21,1.125
		c10.066,0.365,19.946,0.446,29.994,1.231c7.483,0.584,32.574,4.897,31.203-7.646c-0.729-6.685-4.317-11.014-6.491-16.983
		c-1.368-3.758-0.295-3.1,0.702-7.057c0.4-1.584,0.668-3.124,0.91-4.744c0.711-4.76,8.272-37.306,16.747-27.359
		c3.09,3.626,8.553,28.651,17.656,14.753c5.108-7.798,6.249,0.271,8.332,4.436c2.378,4.753,11.009,5.621,9.861-1.65
		c2.774,3.105,5.961,7.105,10.627,5.035c0.005,4.545-7.786,8.835-10.006,12.936c-1.442,2.666-4.708,9.077-3.391,12.236
		c2.093,5.022,11.759,3.164,16.135,3.38c3.097,0.152,6.193,0.305,9.289,0.457c1.687,0.084,0.481,1.541,1.289,2.642
		c1.643,2.24,2.063,4.686,4.279,6.726c3.831,3.527,10.416,3.466,15.237,3.548c7.033,0.12,14.452-0.671,21.297-2.313
		c7.074-1.699,7.988-2.023,7.605-9.86c-0.107-2.221-0.819-5.789-1.385-8.212c-0.612-2.629-1.523-5.266-3.058-7.51
		c-2.6-3.801-2.792-6.667-3.041-11.39c-0.227-4.27-0.268-8.562-0.165-12.834c0.07-2.882,1.957-10.978,0.413-13.205
		c-0.749-1.082,1.788-3.884,2.481-4.994c-0.805,0-1.519-0.046-2.166-0.084c1.871-0.229,2.611-1.055,4.234-3.959
		c1.346-2.412,2.42-5.083,3.39-7.675c1.465-3.919,2.534-8.005,3.474-12.093c3.53-15.352,5.971-31.035,6.45-46.795
		c-0.571-0.105-1.057-0.15-1.506-0.17c3.306-1.732,1.365-9.393,0.987-13.449c-0.6-6.507-1.805-12.926-2.954-19.352
		c3.517,5.67,6.563,11.59,9.251,17.693C378.225,138.396,380.653,151.294,385.378,149.899z M170.177,18.659
		c11.971-5.613,25.137-7.891,38.264-5.517c-4.326,22.652-30.64,34.815-50.324,40.895c-6.115-20.49,19.417-30.871,34.279-37.634
		c-5.85-3.024-19.289,5.7-24.438,8.831c-6.947,4.225-13.391,10.058-17.863,16.877C141.85,36.403,165.134,21.023,170.177,18.659z
		 M79.098,21.56c-3.128,3.618-6.258,7.234-9.386,10.852C70.95,26.553,71.876,20.994,79.098,21.56z M39.155,34.559
		c-8.454-1.963-18.064-2.225-25.968,1.733c0.792,2.469,17.827,1.908,21.501,2.641c6.18,1.233,20.112,3.398,19.518,10.77
		c-1.342,16.603-23.334,5.87-31.049,0.291c-4.261-3.08-11.007-6.655-11.955-12.338c-0.215-1.286-0.954-5.258,0.083-6.479
		c2.081-2.454,12.578-2.114,15.589-2.146c8.301-0.084,16.856,1.661,24.85,3.796c3.064,0.819,5.993,1.74,8.643,3.55
		c5.505,3.76,1.886,5.458-1.695,10.151C57.3,39.845,44.92,35.898,39.155,34.559z M74.571,135.022
		c-5.441-3.969-8.028-12.979-9.241-19.168c4.512-1.818,10.671-1.024,16.043-2.56c5.136-1.468,9.813-4.674,13.935-7.984
		c8.436-6.774,13.288-16.027,16.913-26.018c-2.81-0.626-10.102,15.754-13.046,18.859c-3.959,4.176-7.972,7.865-13.211,10.4
		c-5.968,2.885-18.896,6.95-23.115,1.278c-5.273-7.09-5.583-22.072-6.038-30.537c-0.608-11.676,1.255-23.028,7.733-32.972
		c3.91-6,8.596-11.565,12.911-17.272c1.566-2.071,3.101-4.169,4.732-6.188c3.74-4.627,5.031-1.959,10.122,0.736
		c19.788,10.478,24.427,36.009,17.637,55.697c7.062,0.894,4.575-26.335,3.577-30.496c-3.399-14.168-13.174-25.895-26.525-31.94
		c10.29-5.49,20.398-2.02,29.333,4.273c6.938,4.887,18.579-0.475,19.169,11.161c-2.242-0.405-3.894-2.678-5.624-4.251
		c0.742,3.13,2.716,3.838,4.673,5.902c3.585,3.779,6.918,8.218,11.165,11.843c9.867,8.423,9.239,20.957,7.815,33.508
		c0.349,0.108,0.659,0.184,0.954,0.247c-2.422,1.427-1.824,6.19-2.319,9.575c-0.725,4.95-1.492,9.888-2.356,14.816
		c-1.465,8.357-2.091,18.707-5.417,26.037c-16.627-9.774-36.305-15.358-54.229-5.84C86.061,126.306,78.667,138.011,74.571,135.022z
		 M85.28,160.897c-4.086-2.3-7.261-6.127-7.255-10.998c-0.334-8.682,5.305-16.845,11.741-22.14c7.958-6.546,19.07-4.648,28.61-3.308
		c9.078,1.279,17.708,3.098,23.762,10.486c2.117,2.586,3.555,5.574,4.61,8.729c0.814,2.438,0.733,4.791,1.894,5.886
		c-0.145,0.108-0.291,0.212-0.447,0.347c-3.003,2.594,0.779,8.092-5.292,9.408c-5.144,1.117-12.062-3.142-17.409-3.342
		C111.641,155.444,98.703,168.454,85.28,160.897z M96.382,167.521c4.733-0.698,9.296-2.316,13.357-4.869
		c1.769,3.257,4.21,6.07,7.07,8.418c0.668,0.418,1.242,1.04,1.902,1.485C110.762,174.242,102.875,172.361,96.382,167.521z
		 M112.386,161.535c6.139-2.356,21.307-3.906,23.982,4.086C135.463,180.415,116.317,166.809,112.386,161.535z M180.943,215.183
		c-12.72-5.964-24.673-12.902-36.181-20.964c6.505-4.069,9.379-6.868,16.953-5.652c4.594,0.737,9.298,1.324,13.066,4.27
		C182.012,198.486,181.761,206.898,180.943,215.183z M185.12,284.014c-6.575,2.668-13.972,0.641-20.695-0.227
		c-8.524-1.097-4.718-7.908-2.44-13.969c1.856-4.938,6.06-5.803,9.613-8.707c7.637-6.241,11.775-19.168,13.107-28.516
		c0.376-2.64,0.521-5.341,0.621-8.005c4.273,0.963,8.547,1.925,12.82,2.888c5.143,6.012,7.142,13.791,6.491,21.583
		c-0.563,6.751-5.735,12.089-9.206,17.961C191.607,273.493,191.875,281.275,185.12,284.014z M310.498,274.876
		c-7.225-0.502-14.448-1.006-21.673-1.51c1.73-5.836,2.637-14.611,9.181-16.298c4.167-1.076,10.303,0.854,14.141,2.229
		c1.233,0.015,2.624,0.621,3.887,0.744C315.264,262.497,312.745,275.033,310.498,274.876z M300.859,253.106
		c0.576-1.274,0.262-2.459,0.495-3.713c0.386-2.076,0.329-0.78,1.365-2.643c1.053-1.895,3.128-3.592,4.259-5.652
		c1.497-2.31,3.314-4.37,5.168-6.399c5.509,8.608,4.329,11.539,3.929,21.916C311.159,254.685,306.102,253.638,300.859,253.106z
		 M356.268,281.442c0,6.06-25.632,6.154-31.054,5.792c-14.737-0.98-9.15-17.425-2.551-25.183c5.371-6.31,18.406-3.261,24.714,0.094
		C354.133,266.033,356.268,274.104,356.268,281.442z M350.521,218.525c-0.097-0.604-0.193-1.211-0.291-1.815
		c-0.432,0.963-0.671,2.73-0.868,3.795c0.438,0,0.831,0.001,1.205,0.004c-0.97,0.252-1.735,0.912-2.445,2.473
		c-0.816,1.803-0.119,8.683-0.247,11.101c-0.431,8.131,0.603,16.261,2.936,24.06c-9.021-4.448-19.879-6.039-29.69-3.509
		c0.851-7.719-1.831-10.182-5.202-16.907c-1.979-3.948-5.152-17.315-8.814-17.221c0.587,2.237,2.072,5.06,2.149,7.347
		c0.123,3.695,0.007,2.128-2.315,5.074c-2.411,3.062-4.663,5.522-5.913,9.349c-1.479,4.529-6.769,3.077-9.345,0.226
		c-1.352-1.497-2.134-3.233-2.255-5.259c-0.205-3.495-5.326-3.386-8.579-3.737c-3.642-0.393-9.022-0.882-11.62,1.156
		c-1.11,0.87-1.195,3.212-2.645,4.209c-3.612,2.485-7.325,0.441-9.202-2.971c-2.447-4.449,0.415-8.235-0.724-11.968
		c-0.521-1.709-3.02-3.062-5.605-3.633c1.589-0.43,2.013-1.678,3.374-5.239c1.254-3.286,3.134-6.393,5.5-8.996
		c4.614-5.079,11.555-9.01,18.399-9.965c9.121-1.274,13.329-1.932,20.779,3.795c3.852,2.962,4.827,4.326,5.63,9.044
		c0.536,3.156,0.67,12.153,4.563,11.568c-4.933-20.865,20.539-38.979,39.53-31.732C362.301,193.912,357.864,209.858,350.521,218.525
		z M365.729,157.628c-0.28,4.36-0.749,8.688-1.185,13.033c-0.837,8.365-2.401,16.638-4.018,24.879
		c-14.528-22.053-40.922-9.149-52.846,7.922c-6.834-11.294-18.682-12.146-30.643-9.762c-7.959,1.588-15.838,4.511-22.675,8.935
		c-4.563,2.95-6.45,12.897-8.956,17.87c0.17,0,0.315,0.001,0.478,0.001c-0.43,0.218-0.773,0.506-0.991,0.878
		c-2.574,4.389-5.524,8.521-7.888,13.034c-1.746,3.332-7.19,25.283-8.533,25.429c-6.349,0.684,0.818,6.01,2.751,9.272
		c2.349,3.96,3.881,8.373,4.896,12.851c1.604,7.058-17.114,4.743-21.387,4.588c-5.013-0.183-10.127-0.778-15.061-1.683
		c-5.586-1.021-4.411-6.072-2.976-11.094c2.218-7.761,8.383-15.458,16.417-17.661c-1.869-1.14-4.137-1.211-6.161-0.373
		c2.479-7.886,2.046-15.883-1.654-23.315c-1.575-3.164-5.049-9.736-8.187-11.471c-0.918-0.507-2.032-0.841-3.271-1.048
		c-4.234-1.216-9.701-2.386-10.539-5.434c-0.628-2.283,0.927-6.813,0.68-9.511c-0.534-5.869-4.207-11.304-8.579-15.063
		c-9.424-8.099-24.861-6.664-33.204,2.291c-2.343-2.411-8.906-7.38-8.601-10.029c0.124-1.075,2.897-3.199,3.515-4.248
		c1.078-1.829,1.205-4.194,2.234-5.942c1.634-2.776,1.66-2.377,4.795-4.148c3.094-1.746,5.107-5.745,6.492-8.852
		c0.744-1.668,1.995-3.924,1.861-5.859c-0.058-0.845-0.194-2.127-0.612-3.074c0.223-0.042,0.445-0.083,0.694-0.145
		c-0.754-10.305-2.5-19.406-1.152-29.698c1.79-13.681,3.936-27.307,6.238-40.91c-0.215-0.048-0.4-0.065-0.597-0.094
		c0.728-0.657,0.934-1.94,1.213-3.623c0.517-3.113,3.079-2.286,5.935-2.768c5.996-1.013,11.819-2.537,17.701-4.059
		c10.752-2.781,22.284-3.38,33.309-4.458c24.461-2.39,49.033-3.583,73.602-4.146c-1.598,3.818-6.045,16.984-1.651,19.068
		c-0.574,0.038-1.141,0.079-1.655,0.079c0.342,36.108,43.337,80.173,80.756,67.717c-0.273,0.891,0.144,1.984-0.082,2.891
		c0.383,0.09,0.723,0.129,1.051,0.156C365.25,151.06,365.951,154.181,365.729,157.628z M375.495,89.361
		c-3.938-6.818-5.205-10.069-13.231-10.069c8.516,9.766,13.404,21.291,17.275,33.52c2.016,6.368,3.546,12.896,4.928,19.425
		c0.783,3.694,1.494,7.402,2.201,11.11c1.088,5.711,0.139,6.553,6.153,6.553c-2.771-15.018-6.374-29.889-10.421-44.609
		C380.672,99.707,378.419,94.425,375.495,89.361z M416.308,211.841c-3.762-5.182-9.189-8.145-12.323-14.114
		c-7.283-13.887-8.267-32.626-11.163-47.827c-1.654,0-3.308,0-4.962,0c3.558,21.168,2.766,48.272,21.46,62.684
		c-13.62-2.696-23.694-14.35-20.696-28.269c1.248-5.791,1.766-36.708-6.388-34.415c2.022,7.875,3.919,15.841,4.549,23.974
		c0.469,6.038-2.285,10.755-2.151,16.716c0.217,9.711,7.6,18.039,16.334,21.581c3.613,1.466,7.59,2.239,11.336,3.253
		c1.943,0.527,3.643,1.643,5.308,0.42C420.414,213.787,417.643,213.68,416.308,211.841z M191.406,91.095
		c-24.027,22.811-12.302,61.462,19.724,68.068c23.492,4.846,42.254-12.996,45.732-35.179
		C260.573,89.9,216.462,67.307,191.406,91.095z M237.468,151.074c-28.095,15.379-62.182-6.728-55.759-39.43
		c5.321-27.089,35.879-38.29,57.581-21.045C257.709,104.733,259.548,138.989,237.468,151.074z M143.895,74.133
		c6.898-0.489,5.475-17.049-3.144-14.855C136.803,62.781,136.254,74.676,143.895,74.133z M73.144,60.432
		c-9.984,3.134-4.533,19.017,2.813,14.608C81.715,71.583,78.836,62.055,73.144,60.432z M95.019,136.157
		c-0.289,3.143,2.949,3.516,5.086,2.021c-1.41,4.4-4.73,7.208-9.303,7.883c5.048,5.382,11.499-2.296,12.404-7.304
		C104.242,133.02,98.493,129.918,95.019,136.157z M142.075,147.423c-2.689-0.699-5.263-2.033-7.236-4.003
		c-2.973-2.964-1.429-3.948-1.902-7.8c-5.16-5.627-5.246,3.311-3.101,6.686C132.447,146.413,137.252,149.141,142.075,147.423z
		 M175.237,260.616c-1.703,3.086,18.737,4.675,20.22,4.747C195.449,261.813,177.164,257.124,175.237,260.616z"/>
</g>
</svg>
