<svg xmlns="http://www.w3.org/2000/svg" xmlns:xlink="http://www.w3.org/1999/xlink" version="1.1">
  <g transform="scale(0.1) translate(285,-130)" id="myTree">
    <rect
       style="fill:#502d16"
       id="rect3755"
       width="38.385796"
       height="135.36044"
       x="333.35034"
       y="412.93561" />
    <path
       style="fill:#003e00;stroke:#000000;stroke-width:1px;stroke-linecap:butt;stroke-linejoin:miter;stroke-opacity:1"
       d="m 350.52294,162.41779 c 45.35523,49.58592 68.30881,76.28117 137.38074,106.06602 -49.49747,3.16986 -65.65992,7.45477 -115.15739,-8.08122 37.19346,33.65589 79.36925,63.67564 136.3706,89.90357 -29.52448,8.86132 -77.90225,-10.22203 -126.26907,-20.20305 31.03325,29.4296 63.72488,75.96279 115.15739,105.05586 -84.46056,-24.01069 -184.4487,-22.38115 -314.15745,10e-6 40.71838,-21.12578 104.53494,-63.53265 141.42137,-105.05587 -33.89684,20.76304 -87.0985,20.089 -133.34014,16.16243 54.92101,-23.31175 90.86412,-44.06567 135.36045,-83.84266 -20.68253,3.88388 -77.82911,7.71658 -107.07619,10.10154 26.31048,-5.29696 125.20682,-84.59227 130.30969,-110.10663 z" />
  </g>    
  <g id="myForest">    
    <use xlink:href = "#myTree" x="-10" y="-2" />
    <use xlink:href = "#myTree" x="10" y="2" />
    <use xlink:href = "#myTree" x="-40" y="7" />
    <use xlink:href = "#myTree" x="32" y="7" />

  </g>    
    <linearGradient
       id="linearGradient5227">
      <stop
         id="stop5229"
         style="stop-color:#008000;stop-opacity:1"
         offset="0" />
      <stop
         id="stop5235"
         style="stop-color:#006700;stop-opacity:1"
         offset="0.84402692" />
      <stop
         id="stop5231"
         style="stop-color:#008000;stop-opacity:1"
         offset="1" />
    </linearGradient>
    <linearGradient
       id="linearGradient5222">
      <stop
         id="stop5224"
         style="stop-color:#000000;stop-opacity:1"
         offset="0" />
      <stop
         id="stop5226"
         style="stop-color:#008000;stop-opacity:1"
         offset="1" />
    </linearGradient>
    <linearGradient
       id="linearGradient5212">
      <stop
         id="stop5214"
         style="stop-color:#000000;stop-opacity:1"
         offset="0" />
    </linearGradient>
    <radialGradient
       cx="76.143784"
       cy="962.11768"
       r="60.366074"
       fx="76.143784"
       fy="962.11768"
       id="radialGradient5233"
       xlink:href="#linearGradient5227"
       gradientUnits="userSpaceOnUse"
       gradientTransform="matrix(-0.98699431,0.64563536,-0.46697231,-0.71386896,600.28401,1624.7186)" />
    <linearGradient
       x1="64.732147"
       y1="985.2901"
       x2="64.107155"
       y2="1018.683"
       id="linearGradient5247"
       xlink:href="#linearGradient5222"
       gradientUnits="userSpaceOnUse" />

  <path
     d="m 10.446429,1019.0586 c 4.044564,-11.572 19.854103,-23.29369 38.482142,-30.35713 14.155388,-5.36749 22.120429,-2.86384 30.178573,-0.17856 10.868126,3.62166 25.732176,13.89989 36.964296,32.67849 -16.238763,11.6432 -32.832015,22.8648 -51.250011,21.6072 -31.562398,-2.1549 -44.640301,-15.9149 -54.375,-23.75 z"
     id="myHill"
     transform="translate(0,-988.36218)"
     style="fill:url(#radialGradient5233);fill-opacity:1;stroke:url(#linearGradient5247)" />
  <path
     d="M 8.0812204,31.603036 C 13.324636,11.111392 18.747476,3.5155048 30.557114,-16.37921 38.411455,-5.9814302 37.263782,-7.4855782 41.92133,2.2728428 52.678471,-10.824571 51.489681,-14.65148 57.831233,-34.056879 57.039687,-34.848425 68.6306,-19.150733 71.468292,-18.399515 74.682439,-17.548638 90.655911,-37.909406 89.903576,-38.09749 96.851004,-2.0203051 103.6441,0 116.42008,31.09796 c -10.80604,5.157699 -20.7117,11.108946 -36.112953,13.889597 -9.313114,1.681455 -18.393434,2.222457 -33.082496,0 C 32.44483,42.751372 20.311577,37.290714 8.0812204,31.603036 z"
     id="myMountain"
     style="fill:#803300;stroke:#000000;stroke-width:1px" />
    <linearGradient
       id="linearGradient4298">
      <stop
         id="stop4300"
         style="stop-color:#000000;stop-opacity:1"
         offset="0" />
      <stop
         id="stop4302"
         style="stop-color:#803300;stop-opacity:1"
         offset="1" />
    </linearGradient>
    <linearGradient
       id="linearGradient4288">
      <stop
         id="stop4290"
         style="stop-color:#000000;stop-opacity:1"
         offset="0" />
      <stop
         id="stop4292"
         style="stop-color:#803300;stop-opacity:1"
         offset="1" />
    </linearGradient>
    <radialGradient
       cx="59.122124"
       cy="-28.951275"
       r="54.66943"
       fx="59.122124"
       fy="-28.951275"
       id="radialGradient4294"
       xlink:href="#linearGradient4288"
       gradientUnits="userSpaceOnUse"
       gradientTransform="matrix(-0.75311906,1.0400717,-0.84152356,-0.60934973,84.43377,-111.3177)" />
    <radialGradient
       cx="69.945213"
       cy="-45.220779"
       r="23.48097"
       fx="69.945213"
       fy="-45.220779"
       id="radialGradient4304"
       xlink:href="#linearGradient4298"
       gradientUnits="userSpaceOnUse"
       gradientTransform="matrix(-0.87568994,1.0988247,-1.1618204,-0.92589342,85.736026,-154.75086)" />
<g id="myVolcano">
  <path
     d="m 44.547527,-33.20506 c 8.275665,-5.039021 10.202241,-7.763882 19.68397,-8.625252 8.990378,-0.841691 16.716875,0.02087 25.117641,3.049646 L 67.427682,-15.36905 z"
     id="path4296"
     style="fill:url(#radialGradient4304);fill-opacity:1;stroke:#000000;stroke-width:1px;stroke-linecap:butt;stroke-linejoin:miter;stroke-opacity:1" />
  <path
     d="M 8.0812204,31.603036 C 19.380724,0 32.777118,0 43.941636,-32.54165 c 2.199525,1.105775 11.580429,9.211579 18.940359,9.848987 7.111092,0.615856 27.021581,-15.404827 27.021581,-15.404827 C 96.851004,-2.0203051 103.6441,0 116.42008,31.09796 c -10.80604,5.157699 -20.7117,11.108946 -36.112953,13.889597 -9.313114,1.681455 -18.393434,2.222457 -33.082496,0 C 32.44483,42.751372 20.311577,37.290714 8.0812204,31.603036 z"
     id="path2984"
     style="fill:url(#radialGradient4294);fill-opacity:1;stroke:#000000;stroke-width:1px;stroke-linecap:butt;stroke-linejoin:miter;stroke-opacity:1" />

</g>
  <g
     transform="matrix(0.82823006,0,0,0.82823006,-114.26039,-4.504049)"
     id="myJungleTree">
    <path
       d="m 197.75195,30.565202 c 0,0 -9.3577,1.286763 -6.17986,-11.145818 1.8429,-7.20989 10.19442,-5.218776 11.14582,-0.551773 0.17635,0.865046 -0.24927,-7.220048 5.8488,-9.3801445 4.39061,-1.555271 7.70816,1.7839805 9.15943,5.7384415 1.64665,-2.878671 4.87386,-6.5500745 10.48369,-3.752058 5.89572,2.581167 3.86242,9.490499 4.30383,9.380144 0.44142,-0.110355 10.9052,-7.197602 11.03547,6.069505 0.0843,8.584058 -6.29022,6.952342 -5.73845,7.61447 0.55178,0.662128 5.10996,1.821163 -1.54496,9.049079 -6.04012,6.56017 -14.12539,-0.662127 -14.12539,-0.662127 0,0 -0.16796,2.505463 -9.04909,3.641703 -6.76506,0.865514 -7.50411,-4.965959 -7.50411,-4.965959 0,0 -10.16486,7.182671 -12.35972,-2.317447 -0.89006,-3.852508 4.52454,-8.718016 4.52454,-8.718016 z"
       id="path2986"
       style="fill:#00a000;stroke:#000000;stroke-width:0.62426007px;stroke-linecap:butt;stroke-linejoin:miter;stroke-opacity:1" />
    <path
       d="m 210.70525,69.337315 c 0,0 1.15815,-11.056008 -0.35356,-16.263457 -1.93833,-6.677061 -5.83362,-16.263456 -5.83362,-16.263456 1.0545,-0.503946 1.19278,-1.466007 1.59099,-2.298097 0,0 5.47308,9.957039 7.77817,17.147339 1.51149,4.714795 0.35355,14.849241 0.35355,14.849241 0,0 2.79582,-10.676115 4.24264,-16.086678 1.00513,-3.758803 3.70502,-6.271896 2.2981,-9.899495 -1.989,-5.128434 -11.49048,-11.844039 -11.49048,-11.844039 1.24783,-0.314399 1.72691,-1.857817 2.29809,-3.71231 0,0 6.6048,9.120994 12.02083,11.844039 3.7839,-1.349825 5.38172,-9.101398 5.38172,-9.101398 0.21314,1.052881 0.29522,2.197504 2.12131,2.12132 0,0 -3.32219,7.353641 -5.38172,10.692388 -2.92442,4.740841 -5.12653,13.258252 -5.12653,13.258252 l 6.36396,-2.12132 1.06066,2.474875 -7.07107,3.18198 -1.76776,11.667266 z"
       id="path2988"
       style="fill:#552200;" />
    <path
       d="m 224.83593,53.21627 c 0,0 -2.92414,0.402093 -1.93111,-3.482891 0.57587,-2.252977 3.18559,-1.630785 3.48289,-0.172421 0.0551,0.270313 -0.0779,-2.256151 1.82766,-2.931147 1.37199,-0.485997 2.40868,0.557466 2.86217,1.793173 0.51456,-0.899539 1.52301,-2.046795 3.27599,-1.172459 1.84232,0.806574 1.20695,2.965631 1.34488,2.931146 0.13794,-0.03448 3.4077,-2.249136 3.44841,1.896625 0.0263,2.682382 -1.96559,2.172497 -1.79318,2.379401 0.17243,0.206905 1.59679,0.569085 -0.48277,2.827694 -1.88744,2.049949 -4.41396,-0.206904 -4.41396,-0.206904 0,0 -0.0525,0.782917 -2.8277,1.137974 -2.11397,0.27046 -2.34491,-1.551783 -2.34491,-1.551783 0,0 -3.17636,2.244471 -3.86222,-0.724166 -0.27813,-1.203848 1.41385,-2.724242 1.41385,-2.724242 z"
       id="path2990"
       style="fill:#00d000;stroke:#000000;stroke-width:0.19507138px;stroke-linecap:butt;stroke-linejoin:miter;stroke-opacity:1" />
  </g>
  <path
     d="m 62.09568,39.947156 c -1.70198,-2.722303 -5.72012,-3.928451 -10.3083,-5.602951 -4.87143,-1.777876 -7.89707,-1.45112 -9.90444,-1.785235 0,0 4.71109,-3.785139 9.18427,-1.757664 2.91091,1.319377 11.35563,5.96304 11.35563,5.475887 0,-0.487152 -3.74878,-4.040563 -7.05386,-6.331988 -2.22414,-1.542008 -12.50217,-4.340189 -12.50217,-4.340189 0,0 5.34165,-4.642924 12.20667,-0.350239 2.65007,1.657087 8.10626,9.233801 8.10626,9.233801 0,0 -2.22265,-7.483089 -4.87082,-10.840331 -1.61926,-2.052822 -5.3743,-7.136739 -5.3743,-7.136739 0,0 4.66808,-0.719757 9.49947,6.657747 1.95629,2.987242 2.59815,10.39258 2.59815,10.39258 0,0 -1.11651,-7.981563 0.48715,-11.448077 1.2124,-2.620771 6.35775,-5.884237 6.35775,-5.884237 0,0 -3.25767,3.067378 -3.28808,6.862622 -0.0304,3.795244 -1.80094,11.001026 -1.80094,10.513873 0,-0.487152 2.70458,-7.844076 5.79229,-10.280847 3.3424,-2.637759 12.28139,-3.511658 12.28139,-3.511658 0,0 -7.57604,4.033395 -10.63644,6.39925 -3.35185,2.591155 -5.34376,8.466062 -5.34376,8.466062 0,0 7.65737,-7.046199 10.7068,-8.00129 3.33487,-1.044492 7.40719,0.456901 7.40719,0.456901 0,0 -6.11806,1.456681 -9.33709,3.133559 -3.94321,2.054128 -7.58589,5.612101 -7.58589,5.612101 0,0 5.59206,-1.651877 7.59195,-1.390116 2.38462,0.312117 6.39855,2.692568 6.39855,2.692568 0,0 -8.10204,-1.791363 -13.29369,1.303153 -2.20668,1.315304 -2.09677,1.714884 -2.09677,1.714884 -1.8719,0.516315 -3.85066,0.832267 -6.57697,-0.253427 z"
     id="myJungleFrond"
     style="fill:#00d000;stroke:#000000;stroke-width:0.32476813px;stroke-linecap:butt;stroke-linejoin:miter;stroke-opacity:1" />
<g id="myJungle">
    <use xlink:href = "#myJungleTree" x="-10" y="-6" />
    <use xlink:href = "#myJungleTree" x="10" y="-4" />
    <use xlink:href = "#myJungleTree" x="-40" y="1" />
    <use xlink:href = "#myJungleTree" x="32" y="1" />
    <use xlink:href = "#myJungleFrond" x="-20" y="10" />
    <use xlink:href = "#myJungleFrond" x="20" y="10" />
    <use xlink:href = "#myJungleFrond" x="0" y="20" />
</g>

<polygon id="isometbrick" points="0,16 128,16 128,48 0,48" />
<polygon id="isotile" points="0,32 64,0 128,32 64,64" />
<polygon id="isotilestroke" points="0,32 64,0 128,32 64,64" style="stroke-width:1px;" />
<polygon id="oversizeisotile" points="-1,32 64,-1 129,32 64,65" />
<polygon id="2xoversizeisotile" points="-2,32 64,-2 130,32 64,66" />
<rect id="mybackgroundrectangle" x="0" y="0" width="1" height="1" style="fill:black" />
<use id="maptileshape" xlink:href = "#oversizeisotile" />
<use id="desert" xlink:href="#maptileshape" style="fill:cornsilk" />
<use id="plains" xlink:href="#maptileshape" style="fill:sandybrown" />
<use id="grassland" xlink:href="#maptileshape" style="fill:green" />
<use id="tundra" xlink:href="#maptileshape" style="fill:white" />
<use id="coast" xlink:href="#maptileshape" style="fill:blue" />
<use id="sea" xlink:href="#maptileshape" style="fill:mediumblue" />
<use id="ocean" xlink:href="#maptileshape" style="fill:darkblue" />
<use id="fog" xlink:href="#maptileshape" style="fill:black" />
<use id="unknown" xlink:href="#maptileshape" style="fill:red" />
</svg>
